<?xml version="1.0" encoding="utf-8"?>
<!-- Generator: Adobe Illustrator 25.0.1, SVG Export Plug-In . SVG Version: 6.00 Build 0)  -->
<svg fill="#0065d7" version="1.1" id="Capa_1" xmlns="http://www.w3.org/2000/svg" xmlns:xlink="http://www.w3.org/1999/xlink" x="0px" y="0px"
	 viewBox="0 0 351 328" style="enable-background:new 0 0 351 328;" xml:space="preserve">
<g>
	<path d="M166.8,27.9c5.9,0,11.7,0,17.6,0c0.7,0.2,1.4,0.4,2.1,0.4c29.3,2.3,55.5,12.4,78,31.3c39.5,33.3,56.7,76.2,50.5,127.4
		c-4.5,37.4-22.3,68.3-52,91.7c-31.1,24.6-66.8,34.3-106.1,29.2c-28.7-3.7-54-15.5-75.5-35c-24-21.8-38.8-48.8-44.4-80.7
		c-0.9-5.1-1.4-10.3-2.1-15.5c0-5.7,0-11.4,0-17c0.9-6.2,1.6-12.5,2.7-18.7C48,85.1,94.8,39.4,151,30.1
		C156.3,29.3,161.5,28.7,166.8,27.9z M207,178.7c33.1,13,53.7,36.6,62,71.2c43.7-54.2,38.5-127.4-11-172.5
		c-50.3-45.9-129.1-41.6-173.9,8.9c-45.3,51-38.4,121.1-1.8,162.7c8.4-34.1,29.1-57.4,61.8-70.3c-28.3-20.5-30.3-58.5-9.7-81.4
		c20.5-22.8,54.9-25.1,77-5.5c11.4,10.2,18.1,22.8,19,38C231.6,150.3,223.1,166.4,207,178.7z M179,291.9c3.7-0.4,11.1-0.9,18.3-2.1
		c20.5-3.5,38.8-12.1,55.2-24.9c2.2-1.7,3.1-3.2,2.7-6c-4.4-38.3-37.9-69.3-76.4-70.3c-26.1-0.7-47.7,9-64.7,28.7
		c-10.8,12.6-16.8,27.3-18.4,43.9c-0.2,1.7,0.3,2.8,1.7,3.6c3.3,2,6.5,4.1,9.7,6.2C127.8,284.7,150.6,291.5,179,291.9z M175.4,173.6
		c22,0.1,40.1-17.8,40.2-39.9c0.1-22-17.8-40.1-39.8-40.3c-22.1-0.2-40.3,17.9-40.4,40C135.4,155.5,153.4,173.5,175.4,173.6z"/>
</g>
</svg>
