<?xml version="1.0" encoding="utf-8"?>
<!-- Generator: Adobe Illustrator 26.3.1, SVG Export Plug-In . SVG Version: 6.00 Build 0)  -->
<svg fill="#0065d7" version="1.1" id="Capa_1" xmlns="http://www.w3.org/2000/svg" xmlns:xlink="http://www.w3.org/1999/xlink" x="0px" y="0px"
	 viewBox="0 0 620.6 573.8" style="enable-background:new 0 0 620.6 573.8;" xml:space="preserve">
	<g>
		<path class="st0" d="M492.2,387.9c0-6,0.1-11.9,0-17.9c-0.1-4.4-2.3-7-5.9-7.1c-3.7-0.1-6.1,2.6-6.1,7.2c0,11.9,0,23.9,0,35.8
			c0,4.4,2.3,7.1,5.8,7.2c3.6,0.1,6.1-2.7,6.1-7.3C492.3,399.8,492.2,393.9,492.2,387.9z M146.6,392.2c0-4.8,0-9.6,0-14.3
			c-0.1-4.4-2.3-7-5.9-7c-3.6,0-6,2.6-6.1,6.9c-0.1,9.4-0.1,18.9,0,28.3c0,4.3,2.4,7.1,5.9,7.1c3.6,0,6-2.8,6-7.4
			C146.6,401.2,146.6,396.7,146.6,392.2z M378,394.3c0,4-0.1,8,0,12c0.1,4.1,2.3,6.7,5.7,6.8c3.3,0.1,6.1-2.5,6.2-6.5
			c0.2-8.1,0.2-16.2,0-24.3c-0.1-4.1-2.6-6.6-6-6.6c-3.4,0-5.8,2.6-5.9,6.6C377.9,386.3,378,390.3,378,394.3z M249,394.5
			C249,394.5,249,394.5,249,394.5c0-4.1,0.1-8.3,0-12.4c-0.1-3.9-2.3-6.3-5.7-6.4c-3.3-0.1-6,2.2-6.1,6c-0.2,8.5-0.2,17,0,25.5
			c0.1,3.7,3.1,6.3,6.3,5.9c3.5-0.5,5.4-2.6,5.5-6.2C249,402.7,249,398.6,249,394.5z"/>
		<path d="M109,358.9c3.2-16.1,17.5-20.1,29.9-26.6c-8.5-4-15.7-8.7-21.1-15.8c-1.9-2.5-3.1-5-1.8-8.1c3.9-9.5,4.2-19.7,4.9-29.7
			c0.7-9.7,0.5-19.5,2.5-28.9c7.6-35,46.2-51.7,75.5-32.8c14.7,9.5,22.4,23.6,24.1,40.8c1.2,12.2,1.5,24.4,2.6,36.6
			c0.4,4.4,1.8,8.8,3.2,13.1c1.2,3.6,0.6,6.4-1.6,9.3c-5.4,6.9-12.3,11.6-20.5,15.4c2.9,2.6,5.1,2.9,8.8,1.3
			c10.8-4.7,22-8.5,33.1-12.6c3.8-1.4,7.9-2,9.1-7c0.3-1.2,1.9-2.2,2.9-3.3c2.2-2.3,4.4-4.6,6.6-7c2.7-3,2.7-21.2-0.2-23.9
			c-15.6-14.6-23.4-32.8-23.5-54c-0.1-8.6-1.9-16.6-3.9-24.9c-4.3-18.6-5.4-37.6,3.3-55.4c9.7-19.8,26.1-31.2,48-32
			c30.7-1,61.5-0.4,92.2-0.3c4.4,0,6.8,2.3,6.8,6.7c0,22.4,0.1,44.7-0.3,67.1c-0.1,5.6-1,11.6-3.1,16.8c-3,7.3-3,14.7-3,22.3
			c0,12-1.9,23.8-8.1,34.1c-4.2,7-9.6,13.3-14.9,19.5c-1.7,2-2.9,3.6-2.6,6.2c0,0.3,0,0.5,0,0.8c-1.7,10.5,1,19.3,9.9,25.7
			c0.4,0.3,1,0.7,1.1,1.2c1.3,5.8,6.5,6.2,10.8,7.9c7.2,2.7,14.4,5.5,21.7,7.8c2.6,0.8,5.6,0.5,8.4,0.3c1.8-0.1,3.6-1,5.4-1.5
			c7.8-2.2,7.9-2.2,7.4-10.3c-0.1-1.3-0.8-2.9-1.7-3.6c-12-10.1-17.8-23-17.3-38.5c0.2-5.2-1.2-9.8-3.4-14.5
			c-10.1-22,6.2-50,30.4-51.2c20.3-1,40.7-0.6,61-0.7c4.2,0,6.9,2,6.9,5.7c0.1,12.2,0,24.5-0.5,36.7c-0.1,3.5-1.4,7.1-3,10.2
			c-2.3,4.4-2.9,8.9-2.8,13.8c0.5,15.7-4.8,28.9-17.4,38.8c-3.4,2.7-1.5,6.5-1.4,9.7c0,1.1,2.6,2.6,4.3,3.1
			c7.1,2.2,14.3,4.1,21.4,6.3c11.9,3.7,18.7,12.8,18.7,25.2c0.1,15.8,0.1,31.7,0,47.5c0,4.4-2.4,7.1-6,7.1c-3.5,0-5.8-2.7-6-7.1
			c0-0.9,0-1.9,0-2.8c0-14.1,0-28.2,0-42.3c0-10.1-3-14.2-12.7-17c-7.3-2.1-14.5-4.3-21.9-6.1c-1.2-0.3-2.8,0.5-4.1,0.9
			c-0.3,0.1-0.6,0.5-0.9,0.8c-4.1,4.2-9.7,7.7-11.8,12.7c-2.1,4.9-0.6,11.3-0.6,17c0,11.7,0,23.4,0,35.1c0,1.4-0.1,2.9-0.4,4.3
			c-0.8,3-3,4.5-5.9,4.3c-3.1-0.2-5.2-2.1-5.5-5.3c-0.2-2.6-0.1-5.3-0.1-8c0-14.2-0.1-28.5,0.1-42.7c0-3.4-0.6-6.1-3.4-8.3
			c-2.6-2.2-4.9-4.8-7.4-7.3c-4.8-4.8-4.8-4.8-11.3-2.1c1.3,1.8,2.6,3.5,3.8,5.4c3.2,5.2,4.7,11,4.7,17.1c0.1,14.6,0.2,29.3-0.1,43.9
			c0,2.3-1.6,5-3.4,6.5c-1.1,0.9-4.6,0.7-5.7-0.4c-1.6-1.5-2.6-4.3-2.7-6.6c-0.2-14-0.1-27.9-0.1-41.9c0-11.2-4.4-17.5-15-21.4
			c-12.1-4.4-24.2-8.8-36.8-13.4c-2.9,4.3-5.8,8.7-8.8,13.1c-2.4,3.5-4.7,7.1-7.1,10.6c-5.2,7.3-13.4,8.1-19.9,2
			c-2.9-2.8-5.5-5.7-9.1-9.5c-0.1,2.6-0.3,4-0.3,5.4c0,18,0,35.9,0,53.9c0,6.3-2.1,9.4-6.2,9.2c-4-0.2-5.7-3-5.7-9.3
			c0-17.8,0-35.7,0-53.5c0-1.4,0-2.9,0-5.6c-3.4,3.4-5.9,5.9-8.5,8.5c-7.6,7.5-15.7,6.7-21.7-2.2c-5-7.4-9.9-14.8-15-22.5
			c-10.7,3.9-21.3,7.7-31.8,11.5c-17.4,6.4-20,10.1-20,28.7c0,11.7,0,23.4,0,35.1c0,1.3,0,2.7-0.1,4c-0.4,3.2-2.5,5-5.6,5.2
			c-2.9,0.1-5.1-1.5-5.8-4.5c-0.3-1.4-0.4-2.9-0.4-4.3c0-12.5,0-25,0-37.5c0-10.9,0.4-12.7,4.4-22c-5.5-4.3-5.5-4.3-10.3,0.4
			c-10.7,10.2-22,12.4-32.8,5.9c-3.6-2.2-6.5-5.5-9.9-8c-1-0.7-2.9-1.1-4-0.6c-5.7,2.6-11.2,5.5-16.8,8.3c-5.7,2.8-8.4,7.4-8.3,13.8
			c0.1,13.8,0.1,27.7,0,41.5c0,4.9-3.2,8.1-7,6.9c-1.8-0.6-3.3-2.4-4.9-3.6C109,392.4,109,375.7,109,358.9z M377.5,125.3
			c-0.3-0.1-0.7-0.3-1-0.3c-28.3,0-56.7-0.4-85,0.2c-19.8,0.5-36.9,15.1-41,34.4c-2.9,13.8-3.1,28,1.7,41.4
			c2.6,7.4,3.2,14.6,3.2,22.2c-0.1,10.1,1.7,19.8,6,29c10.6,22.7,33,35.4,58.8,33.2c22.7-1.9,43.7-19.7,49.1-42.8
			c2.1-9.2,1.5-19,2.3-28.5c0.2-2.7,0.8-5.5,1.5-8.1c1.5-6.4,4.2-12.8,4.4-19.3c0.6-20.2,0.3-40.4,0.4-60.6
			C377.9,125.9,377.7,125.6,377.5,125.3z M486.7,221.3c-1.2-0.1-2-0.3-2.7-0.3c-16,0-31.9-0.1-47.9,0c-2.5,0-5.1,0.3-7.5,0.9
			c-16,3.9-24.6,22.4-16.4,36.5c2.4,4.1,3.3,8.5,3.4,13.3c0.1,5.7,0.2,11.6,1.9,16.9c4.5,13.4,14.1,21.2,28.4,22.7
			c11.4,1.2,24.1-5.8,30.2-16.5c4.1-7.3,4.3-15.2,4.3-23.2c0-2.9-0.4-6.3,1-8.6C489.3,249.9,485.8,235.5,486.7,221.3z M133.5,272.9
			c5.3,0.5,6.9,3.8,6.9,8.5c0,0.7,0.2,1.3,0.3,2c1.5,14.1,14,26.8,29.7,27.9c13.8,1,27.7-7.7,32.7-21.2c1.5-4.2,1.3-7.7-1.5-11.5
			c-7.7-10.5-18.5-15.4-30.8-18.1c-5.9-1.3-10.6-0.5-14.1,4.8c-0.8,1.2-2,2.2-3,3.2c-2.8,2.6-6.2,2.8-8.6,0.7c-2.5-2.3-2.6-6,0-8.9
			c3.2-3.5,6.5-7.1,10-10.3c1.3-1.2,3.5-2.2,5.3-2.2c12.2,0.1,23.9,2.5,34.2,9.1c6.2,4,11.7,9.2,17.1,13.5
			c1.3-12.8-2.7-26.3-11.2-36.5c-12.3-14.7-36.3-16.7-51-4.5C135.7,240.7,133.1,256.1,133.5,272.9z M281,289.8c0,3.4-0.2,6,0.1,8.6
			c0.2,1.4,1,3.1,2.1,3.8c9.3,6.6,18.8,13,28.3,19.3c1,0.6,3.1,0.6,4,0c9.5-6.3,19-12.8,28.3-19.3c1.1-0.8,1.9-2.5,2.1-3.8
			c0.3-2.6,0.1-5.2,0.1-8.4C324.3,300.3,303,300.5,281,289.8z M338.4,346.1c4.9-7.3,9.7-14.5,14.4-21.6c4.4-6.6,4.4-6.6-1.3-12
			c-0.2-0.2-0.5-0.1-1-0.3c-9.1,6.2-18.3,12.5-27.2,18.6C328.4,336.1,333.3,340.9,338.4,346.1z M303.8,330.9
			c-9.1-6.3-18.4-12.6-28.3-19.3c-1,1.3-1.7,2.7-2.8,3.5c-2.8,2.1-2.4,4-0.5,6.6c4,5.5,7.6,11.2,11.3,16.8c1.7,2.6,3.5,5.1,5.2,7.6
			C293.9,340.9,298.7,336,303.8,330.9z M159.6,322.7c-0.6,6.6-2.4,13.9,6.2,18c5,2.4,9.5,2.2,14.4-0.4c8.5-4.4,6-11.5,5.3-17.7
			C176.9,322.7,168.4,322.7,159.6,322.7z M447.6,341.4c3.9-4,7-7.5,10.5-10.5c3-2.6,3.9-5.4,2.6-8.9c-4.3,0.5-8.4,1.4-12.6,1.4
			c-4.3,0-8.6-0.9-13.6-1.6c0.2,2.2-0.3,5,0.9,6.5C439,332.8,443.2,336.8,447.6,341.4z M147.1,322.4c0.7-4.1,0.5-7.2-3.3-9.9
			c-2.8-1.9-4.9-4.8-7-7.5c-1.9-2.4-3.4-5.2-5.1-8c-1,4.1-2.1,7.8-2.8,11.6c-0.2,1.1,0.2,2.6,0.9,3.4
			C134.6,317,140.4,320.2,147.1,322.4z M198.1,322.5c6.8-2.3,12.6-5.5,17.4-10.5c0.6-0.6,1.3-1.6,1.2-2.3c-0.9-4.1-2.1-8.2-3-11.6
			c-4,4.8-7.6,10.1-12.2,14.3C198.4,315.3,197.1,318,198.1,322.5z"/>
		<path d="M492.2,387.9c0,6,0.1,11.9,0,17.9c-0.1,4.5-2.5,7.4-6.1,7.3c-3.5-0.1-5.8-2.8-5.8-7.2c0-11.9,0-23.9,0-35.8
			c0-4.6,2.4-7.3,6.1-7.2c3.6,0.1,5.8,2.7,5.9,7.1C492.3,375.9,492.2,381.9,492.2,387.9z"/>
		<path d="M146.6,392.2c0,4.5,0,9,0,13.5c0,4.6-2.4,7.4-6,7.4c-3.5,0-5.9-2.8-5.9-7.1c-0.1-9.4-0.1-18.9,0-28.3
			c0-4.3,2.5-6.9,6.1-6.9c3.6,0,5.8,2.6,5.9,7C146.6,382.6,146.6,387.4,146.6,392.2z"/>
		<path d="M378,394.3c0-4-0.1-8,0-12c0.1-4.1,2.4-6.6,5.9-6.6c3.4,0,5.9,2.5,6,6.6c0.1,8.1,0.1,16.2,0,24.3c-0.1,4-2.8,6.6-6.2,6.5
			c-3.4-0.1-5.6-2.7-5.7-6.8C377.9,402.2,378,398.3,378,394.3z"/>
		<path d="M249,394.5c0,4.1,0.1,8.2,0,12.4c-0.1,3.6-2,5.7-5.5,6.2c-3.1,0.4-6.1-2.2-6.3-5.9c-0.2-8.5-0.2-17,0-25.5
			c0.1-3.8,2.8-6.1,6.1-6c3.3,0.1,5.5,2.5,5.7,6.4C249.1,386.2,249,390.3,249,394.5C249,394.5,249,394.5,249,394.5z"/>
		<path d="M274.6,181.7c0,4.5,0.1,8.6,0,12.7c-0.1,4.8-2.3,7.3-6.1,7.3c-3.6-0.1-5.8-2.5-5.9-7.1c-0.1-4.5-0.2-9,0.2-13.5
			c0.4-5.8,4.5-10.4,10.2-11.2c20.4-3,40.8-3.8,61,0.8c10.4,2.3,20,6.5,27.8,14c2.8,2.7,3.1,5.9,1.1,8.5c-2.1,2.6-5.7,3.1-8.5,0.6
			c-11.3-10.1-25.1-12.6-39.4-13.8C301.6,178.8,288.4,179.8,274.6,181.7z"/>
		<path d="M472.9,251.9c0.1,5.3-3.5,8.5-7.3,7.1c-12.1-4.5-24.8-5.3-37.5-6.1c-3.4-0.2-5.3-2.3-5.4-5.7c-0.1-3.3,2.1-5.9,5.7-5.9
			c13.7,0.1,27.3,1,40.1,6.6C470.6,248.7,472,251,472.9,251.9z"/>
	</g>
</svg>
