<?xml version="1.0" encoding="utf-8"?>
<!-- Generator: Adobe Illustrator 26.3.1, SVG Export Plug-In . SVG Version: 6.00 Build 0)  -->
<svg fill="#fff" version="1.1" id="Capa_1" xmlns="http://www.w3.org/2000/svg" xmlns:xlink="http://www.w3.org/1999/xlink" x="0px" y="0px"
	 viewBox="0 0 620.6 573.8" style="enable-background:new 0 0 620.6 573.8;" xml:space="preserve">
<g>
	<path d="M308.3,92.8c8.2,2.5,16.7,4.2,24.4,7.8c25.2,11.9,41.1,41.8,36.7,67.9c-2,12.1-7,23.1-12.5,33.9
		c-13.6,26.8-30.6,51.4-48.5,75.5c-3.9,5.3-9.8,5.3-13.7,0c-19.6-26.5-38.4-53.5-52.4-83.5c-5.4-11.6-9.9-23.4-9.3-37.3
		c-34.5,18.5-58.3,45.2-72,80.2c9.1,0.8,18.2,0.6,26.8,2.7c30.5,7.3,51.5,33.7,52.2,65c0.3,11.7-4,22.4-8.7,32.9
		c-8.3,18.6-19,35.8-30.3,52.7c-1.4,2.2-2.9,4.3-4.3,6.5c41.8,44.1,120.1,59.1,181.5,21.5c-0.5-1.2-1.2-2.4-1.7-3.7
		c-3.8-9.2-8.2-18.3-11.3-27.7c-6.4-19.7-1.9-38.1,10-54.3c17.7-24.2,41.9-33.2,71.4-27.2c1.1,0.2,2.3,0.3,4,0.5
		c0.3-5.8,0.8-11.4,0.7-16.9c-0.3-35.4-12.6-66.6-34.1-94.4c-6.7-8.6-14.9-15.6-23.4-22.3c-0.9-0.7-1.9-1.4-2.8-2.2
		c-3.9-3.4-4.6-7.9-2-11.4c2.6-3.5,7.2-4.2,11.5-1.3c16.2,10.8,28.8,25.1,39.3,41.2c20.8,32.1,29.7,67.3,26.4,105.4
		c-0.5,6,0.5,9.6,5.9,13.6c19.8,15,29.1,35.4,26.8,60.2c-1.2,12.3-6.7,23.4-12.2,34.4c-13.7,27-30.8,51.9-48.8,76.2
		c-4.1,5.5-10,5.5-13.9-0.2c-11.8-17-23.3-34.2-35-51.3c-0.9-1.4-1.8-2.8-2.5-4c-71.5,36.5-137.7,29.5-199.7-22
		c-2.4,3.2-5,6.8-7.7,10.4c-5,6.7-10.5,6.7-15.4,0c-17.5-23.7-34.4-47.8-47.5-74.3c-5-10.1-9.1-20.8-12-31.6
		c-3.7-13.7-0.5-27.1,5.7-39.7c6.4-13.1,16.2-23.1,29-30.2c1.6-0.9,3.1-2.8,3.6-4.6c15.7-47.4,46.2-81.6,91.6-102.6
		c1.6-0.7,3.2-2.3,3.9-3.8c11-23.4,28.9-37.6,54.7-41.5c0.5-0.1,0.9-0.4,1.4-0.6C298.9,92.8,303.6,92.8,308.3,92.8z M301.2,260
		c0.5-0.3,0.8-0.4,0.9-0.6c17.3-24.3,34.1-48.9,46.1-76.3c3.6-8.2,6.6-16.7,5.6-26c-2.4-22-13.8-37.5-34.5-45.1
		c-20.6-7.5-39.7-3.3-55.1,12.2c-15.3,15.5-19.7,34.1-11.3,54.9c8.7,21.4,20.9,40.9,33.7,60.1C291.4,246.3,296.4,253.1,301.2,260z
		 M171.4,405.4c5.2-7.4,10.1-14.2,14.7-21.1c11.8-17.6,23.2-35.5,31.5-55.1c2.7-6.4,5.4-13.2,6-20c2.6-28.2-20.3-53.7-48.6-55.4
		c-38.6-2.4-67,36.5-52,70.7c9.2,21.1,20.9,40.7,33.6,59.7C161.3,391.2,166.3,398,171.4,405.4z M430.7,470.9c0.5-0.3,0.9-0.3,1-0.5
		c17.4-24.5,34.3-49.3,46.5-77c5-11.4,7.1-22.9,3.7-35.3c-7.8-28.3-38.5-44.9-66.6-36.1c-27.1,8.5-44.9,39.4-32.9,67.7
		c8.9,21.1,20.6,40.5,33.2,59.5C420.5,456.6,425.7,463.7,430.7,470.9z"/>
	<path d="M301.5,203.2c-23.2,0-42-18.7-42.1-41.9c0-23.1,18.8-42,42-42c23.1,0,42.1,18.8,42.1,41.9
		C343.5,184.4,324.7,203.2,301.5,203.2z M301.4,187.3c14.2,0.1,26.2-11.8,26.2-26c0-14.2-12.1-26.2-26.2-26.1
		c-14.2,0.1-25.8,11.7-26,25.8C275.3,175.4,287,187.2,301.4,187.3z"/>
	<path d="M171.2,264.3c23-0.2,42.2,18.7,42.3,41.8c0.1,23-18.8,42.1-41.9,42.2c-23.1,0.1-42.1-18.6-42.3-41.8
		C129.1,283.7,148.1,264.5,171.2,264.3z M197.4,306.1c-0.1-14.4-11.9-26-26.3-25.8c-14.4,0.2-25.9,12-25.7,26.4
		c0.2,14.2,12,25.8,26.1,25.7C185.9,332.2,197.5,320.4,197.4,306.1z"/>
	<path d="M431.6,414.2c-22.5,0.6-42.1-18.2-42.7-41c-0.6-22.7,18-42.3,40.7-42.9c23.5-0.6,42.8,17.7,43.4,41.4
		C473.8,394.3,454.9,413.6,431.6,414.2z M405.1,372.3c0,14.4,11.7,26,26.1,25.9c14.2-0.1,25.8-11.6,25.9-25.8
		c0.1-14.4-11.6-26.1-25.9-26.2C416.8,346.2,405,357.9,405.1,372.3z"/>
</g>
</svg>
