<?xml version="1.0" encoding="UTF-8"?>
<svg fill="#fff" xmlns="http://www.w3.org/2000/svg" version="1.1" viewBox="0 0 512 512">
  <!-- Generator: Adobe Illustrator 28.7.4, SVG Export Plug-In . SVG Version: 1.2.0 Build 166)  -->
  <g>
    <g id="Capa_1">
      <g>
        <path d="M140.5,486.6c-8.7-3-15.4-8-17.4-17.6-.6-2.6-.6-5.4-.6-8,0-11.7,0-23.3,0-35.5-7.9,0-15.3,0-22.8,0-5.4,0-10.8,0-16.2,0-12.2-.3-21.2-9-22.2-21.2-.1-1.6,0-3.3,0-4.9,0-115.8,0-231.7,0-347.5,0-17.7,8.6-26.3,26.2-26.3,92.2,0,184.4,0,276.5,0,17.1,0,25.7,8.7,25.8,25.8,0,11.5,0,23.1,0,35.4,1.8,0,3.4,0,4.9,0,10.8,0,21.7,0,32.5,0,14.4,0,23.8,9.3,23.8,23.6,0,88.1.1,176.2,0,264.3,0,15.3-6.1,28.7-17.2,39.4-19.8,18.9-39.8,37.5-59.7,56.2-8.9,8.4-19.8,12.7-31.5,15.6-.8.2-1.6.6-2.4.9h-199.5ZM339.5,469.4v-5.4c0-16.4,0-32.7,0-49.1,0-3.6.1-7.3,1-10.7,3.8-14.4,15.1-23,30.5-23.1,18-.1,36.1,0,54.1,0q8.8,0,8.8-9.1c0-86.4,0-172.9,0-259.3,0-8.3-1.2-9.5-9.8-9.5-91.7,0-183.5,0-275.2,0-9,0-10.1,1.1-10.1,10.1,0,115.6,0,231.1,0,346.7,0,8.9,1.1,9.9,9.8,9.9,60.5,0,120.9,0,181.4,0,2.8,0,5.7-.3,9.3-.5ZM372.9,86.6c0-13.4,0-26.1,0-38.8,0-3.5-2.3-5.4-5.9-5.6-1.2,0-2.4,0-3.6,0-92,0-184.1,0-276.1,0-1.4,0-2.7,0-4.1.2-3.1.4-4.9,2.1-5.2,5.3-.1,1.8-.1,3.6-.1,5.4,0,111.8,0,223.6,0,335.4,0,4.2,0,8.4,0,12.6,0,6,1.8,7.8,7.8,7.8,11,0,22,0,32.9,0,1.2,0,2.3-.2,3.8-.4v-6.1c0-96.4.2-192.7-.2-289.1,0-16.5,9.9-27,26.8-26.9,72.5.5,145,.2,217.5.2h6.4ZM356.2,461.7c.4.3.9.5,1.3.8,22.6-21.2,45.2-42.5,67.8-63.7-19-1.1-37.1-1.3-55.3-1-8.5.1-13.7,6.1-13.9,14.6,0,4.3,0,8.7,0,13,0,12.1,0,24.2,0,36.3Z"/>
        <path d="M286.7,181.1c-25.7,0-51.4,0-77.1,0-7.8,0-12.1-3-12.1-8.4,0-5.4,4.2-8.4,12-8.4,51.4,0,102.8,0,154.2,0,1.2,0,2.4,0,3.6,0,4.9.6,8,3.8,8.2,8.1.1,4.5-3.1,7.9-8.1,8.5-1.5.2-3,.1-4.5.1-25.4,0-50.8,0-76.2,0Z"/>
        <path d="M286.6,219.9c25.7,0,51.4,0,77.1,0,1.6,0,3.3,0,4.9.2,4.1.7,7,4.2,6.9,8.2,0,4.1-2.9,7.3-7.2,7.9-1.6.2-3.3.2-4.9.2-51.2,0-102.5,0-153.7,0-8.1,0-12.1-2.7-12.1-8.2,0-5.5,4-8.4,11.9-8.4,25.7,0,51.4,0,77.1,0Z"/>
        <path d="M286.4,292.1c-26.3,0-52.6,0-78.9,0-6.8,0-10.8-4.3-9.5-9.9.8-3.6,3-5.8,6.7-6.3,1.9-.3,3.9-.3,5.8-.3,50.8,0,101.6,0,152.4,0,1.8,0,3.6,0,5.4.2,4.3.5,7.2,3.7,7.4,7.7.2,4.2-2.9,7.8-7.2,8.4-1.6.2-3.3.2-4.9.2-25.7,0-51.4,0-77.1,0Z"/>
        <path d="M250.1,347.7c-14.1,0-28.2,0-42.4,0-7.7,0-12.2-5.9-9.3-11.9,2-4.1,5.8-4.9,9.9-4.9,11.6,0,23.1,0,34.7,0,16.1,0,32.2,0,48.2,0,2.1,0,4.2.1,6.2.7,3.5,1,5.4,3.6,5.6,7.3.2,3.9-1.6,6.7-5.3,8-1.9.7-4.1.8-6.2.8-13.8,0-27.6,0-41.5,0Z"/>
      </g>
    </g>
  </g>
</svg>