<?xml version="1.0" encoding="UTF-8"?>
<svg fill="#0065d7" xmlns="http://www.w3.org/2000/svg" version="1.1" viewBox="0 0 512 512">
  <!-- Generator: Adobe Illustrator 28.7.4, SVG Export Plug-In . SVG Version: 1.2.0 Build 166)  -->
  <g>
    <g id="Capa_1">
      <g>
        <path d="M289.6,461.4v-31.9h4.9c34.5,0,69,0,103.6,0,12.5,0,18.7-6.2,18.7-18.6,0-102.6,0-205.1,0-307.7,0-12.6-6.2-18.7-19-18.7-34.4,0-68.8,0-103.2,0-1.6,0-3.1,0-4.9,0v-31.9h4.6c34.4,0,68.8,0,103.2,0,27.1,0,45,14.4,50.7,40.9.1.5.4,1,.6,1.5v324.2c-.3.9-.6,1.7-.8,2.6-3.9,18.9-15,31.4-33.2,37.5-2.7.9-5.6,1.5-8.4,2.2h-116.8Z"/>
        <path d="M39.2,241h248.1c-20-19.9-39.9-39.8-59.4-59.3,8.1-8.1,15.5-15.5,22.6-22.6,32.4,32.3,65.4,65.3,98.2,98-32.5,32.4-65.4,65.3-98.1,98-7-7.1-14.4-14.5-21.8-21.9,19.5-19.4,39.4-39.3,59.3-59.2-.2-.4-.3-.7-.5-1.1H39.2v-31.9Z"/>
      </g>
    </g>
  </g>
</svg>