<?xml version="1.0" encoding="UTF-8"?>
<svg fill="#fff" xmlns="http://www.w3.org/2000/svg" version="1.1" viewBox="0 0 512 512">
  <!-- Generator: Adobe Illustrator 28.7.4, SVG Export Plug-In . SVG Version: 1.2.0 Build 166)  -->
  <g>
    <g id="Capa_1">
      <path d="M124.5,411.1c-11.8,0-22.2,0-32.7,0-18.8,0-37.5,0-56.3,0-10.2,0-14.5-3.6-14.5-13,0-30.9-1-62,1-92.8,2-31.5,19.7-54.7,46-71.5,2-1.3,4.2-2.5,6.4-3.8-39-34.4-29-81.3-5.7-103.7,25.3-24.2,72-29.8,104.2,9.8,1.2-23.6,9.1-43.7,26.1-59.7,16.8-15.8,36.9-23.3,60-22.7,42.3,1.1,70.3,29.5,80,81.5,34.8-41.7,82.5-30.5,104.7-8.1,23.9,24.3,30.8,70.6-5.9,101.9,9.4,7.8,19.8,14.9,28.4,23.8,16.8,17.5,24.3,39.4,24.8,63.3.5,25.9-.2,51.9-.3,77.8,0,14.1-3.1,17.1-17.3,17.1-25.5,0-51,0-76.5,0-2.9,0-5.9,0-9.8,0,0,10.8,0,20.7,0,30.6,0,13.1-3.5,16.5-16.4,16.5-76.8,0-153.5,0-230.3,0-12.4,0-15.9-3.6-16-16.2,0-9.9,0-19.9,0-30.9ZM364.1,435.3c.2-2.1.5-3.8.5-5.5,0-33.9.8-67.9-.4-101.8-.5-13.9-3.1-28.4-8-41.5-18-47.8-68.4-75-120.4-66.3-47.8,8-86.5,51-88.1,99.9-1.3,37.1-.5,74.3-.6,111.5,0,1.2.4,2.3.7,3.6h216.3ZM255.7,76.3c-32.6,0-59.6,26.9-59.9,59.5-.3,32.6,27.4,60.3,60.1,60.2,32.5-.1,59.6-27.1,59.9-59.6.3-32.7-27.2-60.2-60.1-60.1ZM363.3,250.9c.9,1.8,1.5,3.2,2.3,4.4,13.4,20.5,20.9,43,21.3,67.5.3,19.2.2,38.4.3,57.6,0,2.6.3,5.2.4,7.6h80.1c0-24.1,0-47.4,0-70.8,0-31-14.4-53.5-42-66.8-20.3-9.8-41.3-9.3-62.4.6ZM124.5,388.2c0-19.3.2-37.7,0-56.1-.3-28.2,6.4-54.2,22.2-77.8.6-1,.9-2.2,1.3-3.2-43.1-23-100.8,8.7-103.7,57.4-1.5,25.3-.6,50.8-.7,76.3,0,1.1.6,2.3,1,3.5h80ZM70.7,174.2c-.7,25,19.3,45.8,44.8,46.4,24.9.6,45.3-18.9,46.3-44.2,1-25.1-18.8-45.9-44.4-46.8-25.1-.8-46,19-46.7,44.5ZM441,176c.7-25-19.5-45.8-44.9-46.3-24.9-.5-45.3,19-46.2,44.3-.9,25.1,18.9,45.9,44.5,46.7,25.1.8,45.9-19.2,46.6-44.6ZM207.2,203.7c-6.9-7.3-14.7-15.5-22.8-24.1-1.8,20.6-11,37.1-27.3,50.3,2.7,1.3,4.8,2.4,5.2,2.6,15.9-10.2,30.5-19.6,44.9-28.8ZM353.4,231.7c.2-.8.4-1.6.5-2.4-16-12.7-24.8-29.4-26.7-49.6-8.2,8.6-16,16.8-22.4,23.6,13.1,9.1,26.6,18.7,40.5,27.8,2,1.3,5.4.4,8.1.6Z"/>
    </g>
  </g>
</svg>