<svg fill="#0065d7" xmlns="http://www.w3.org/2000/svg" viewBox="0 0 190.34 190.34"><g id="Capa_2" data-name="Capa 2"><g id="Capa_1-2" data-name="Capa 1"><path d="M167.24,137c1.69,1.6,3.94,3.64,6.08,5.79,3,3,3,5.76,0,8.82q-10.78,10.85-21.62,21.63c-3.12,3.1-5.81,3-9-.1-2-2-4-3.92-5.95-5.87-.12-.12-.31-.16.1,0-6.46,2.52-12.53,4.84-18.54,7.31a3,3,0,0,0-1.5,2.16c-.19,2.68,0,5.39-.1,8.09-.09,3.36-2,5.42-5.39,5.44q-16.07.09-32.14,0c-3.48,0-5.41-2.07-5.49-5.61-.06-2.61-.07-5.23,0-7.84,0-1.33-.39-1.91-1.72-2.4-6-2.23-12-4.65-18.63-7.26-1.58,1.67-3.62,3.92-5.77,6.06-3,3-5.79,3-8.82,0Q27.8,162.41,16.93,151.46c-2.92-2.93-2.9-5.68,0-8.61,2.15-2.15,4.41-4.18,6.12-5.79-2.63-6.79-5-13-7.45-19a2.81,2.81,0,0,0-2.07-1.28c-2.61-.15-5.23,0-7.84-.07C2,116.58,0,114.62,0,111Q0,95.16,0,79.35c0-3.71,2-5.65,5.62-5.73,2.62-.06,5.24.1,7.84-.09a3,3,0,0,0,2.18-1.48c2.47-6,4.79-12.09,7.45-18.9-1.68-1.57-4-3.57-6.12-5.71-2.93-2.91-2.93-5.71,0-8.62Q27.85,27.89,38.78,17c3-3,5.74-3,8.81,0,1.75,1.71,3.38,3.54,5.23,5.11a3,3,0,0,0,2.56.4q8.37-3.28,16.6-6.88a3,3,0,0,0,1.58-2.11c.19-2.68,0-5.39.1-8.09C73.75,2.1,75.7.06,79.05,0Q95.13,0,111.2,0c3.47,0,5.4,2.07,5.48,5.61.06,2.61-.08,5.23.08,7.84a2.79,2.79,0,0,0,1.25,2.1c6.11,2.48,12.27,4.8,19.12,7.44,1.58-1.69,3.6-4,5.75-6.11,2.91-2.91,5.66-2.89,8.61,0q10.95,10.86,21.82,21.8c3,3,3,5.77-.1,8.82-2.09,2.08-4.29,4-6,5.6,2.63,6.8,5,13,7.45,19.06a2.76,2.76,0,0,0,2.07,1.3c2.6.16,5.22,0,7.83.08,3.7.07,5.69,2,5.7,5.64q.07,15.81,0,31.63c0,3.77-2,5.7-5.87,5.77-2.61,0-5.23-.09-7.84.08a2.78,2.78,0,0,0-1.95,1.44C172.19,124.2,169.86,130.28,167.24,137Zm12.5-52.93h-4.18c-1.31,0-2.61,0-3.92,0-3.46-.12-5.16-1.39-5.95-4.7a76,76,0,0,0-9.57-23c-1.71-2.73-1.4-5,.9-7.3,1.9-1.91,3.93-3.69,5.79-5.42L146.64,27.37c-1.64,1.82-3.32,3.82-5.15,5.67-2.64,2.66-4.74,2.9-7.93.9a74.24,74.24,0,0,0-22.3-9.28c-3.66-.88-5-2.49-5-6.21,0-2.59,0-5.17,0-7.85H84.43c-.13.27-.27.42-.27.57,0,2.44,0,4.87-.07,7.31-.07,3.61-1.34,5.33-4.79,6.15a75.83,75.83,0,0,0-22.79,9.46c-2.91,1.81-5.1,1.54-7.5-.9-1.88-1.91-3.61-4-5.19-5.72L27.7,43.69c1.69,1.59,3.64,3.32,5.48,5.18,2.5,2.53,2.76,4.71.87,7.73a75,75,0,0,0-9.3,22.29c-.94,3.94-2.53,5.12-6.64,5.16-2.49,0-5,0-7.49,0v22.16c2.83,0,5.51,0,8.19,0,3.29.06,5.06,1.37,5.8,4.53a75.56,75.56,0,0,0,9.53,23c1.8,2.88,1.51,5.1-.91,7.51-1.91,1.89-4,3.64-5.85,5.37l16.28,16.1c1.62-1.75,3.34-3.72,5.17-5.56,2.65-2.66,4.69-2.89,7.93-.9a73.28,73.28,0,0,0,22.07,9.14c4,.93,5.24,2.59,5.26,6.86,0,2.48,0,5,0,7.38H106a3.55,3.55,0,0,0,.17-.67c0-2.35,0-4.7,0-7.05.05-3.91,1.26-5.5,5.1-6.42a75,75,0,0,0,22.3-9.28c3.15-2,5.24-1.71,7.92,1,1.83,1.85,3.52,3.83,5.08,5.55l16.16-16.14c-1.83-1.72-3.85-3.51-5.74-5.41-2.39-2.4-2.64-4.6-.83-7.52a75.8,75.8,0,0,0,9.45-22.79c.8-3.36,2.5-4.67,5.91-4.72,2.67,0,5.35,0,8.15,0Z"/><path d="M95.15,52A43.22,43.22,0,1,1,51.94,95.18,43.36,43.36,0,0,1,95.15,52Zm32.79,43.14a32.77,32.77,0,1,0-32.7,32.84A32.94,32.94,0,0,0,127.94,95.09Z"/></g></g></svg>
