<?xml version="1.0" encoding="UTF-8"?>
<svg fill="#0065d7" xmlns="http://www.w3.org/2000/svg" version="1.1" viewBox="0 0 512 512">
  <!-- Generator: Adobe Illustrator 28.7.4, SVG Export Plug-In . SVG Version: 1.2.0 Build 166)  -->
  <g>
    <g id="Capa_1">
      <g>
        <path d="M484.6,192.6v11.6c-.5,2.1-1.1,4.2-1.6,6.4-3.3,13.9-11,24.8-22.9,32.5-3,1.9-4,3.9-4,7.4.1,68.3,0,136.5,0,204.8v5.2H57.3v-5.6c0-68.3,0-136.5,0-204.8,0-3.2-1.1-4.8-3.6-6.8-5.2-4.1-10.1-8.6-14.5-13.6-6.3-7.2-8.5-16.4-10.5-25.5,0-4.1,0-8.3,0-12.4.9-2.9,1.7-5.9,2.8-8.8,9-22.2,18.2-44.3,27-66.6,1.7-4.3,2.5-9.1,2.6-13.7.4-10,.1-20.1.1-30.3h390.2c0,7,.4,13.7,0,20.3-.9,12,2,22.8,6.7,33.8,9.3,21.8,17.7,44,26.4,66.1ZM76.4,441.3h227.7v-169.9h114v170h18.6v-189.4c-20.4,1.4-36.9-5.5-49.9-21.3-11.3,13.8-25.5,21.4-43.2,21.4-17.9,0-32.3-7.6-43.5-21.3-22.9,28.6-64.5,28.2-87,0-11.1,13.6-25.4,21.3-43.1,21.4-17.9,0-32.3-7.5-43.7-21.5-13,16-29.7,22.8-50,21.4v189.4ZM398.9,290.4h-75.3v65.9c2.4,0,4.5,0,6.6,0,7.5.1,12,3.8,11.9,9.6,0,5.9-4.5,9.3-12.1,9.4-2.1,0-4.3,0-6.4,0v66h75.4v-151ZM432.3,91.4H80.7v18.3h351.6v-18.3ZM129,129.8c-1-.1-1.7-.3-2.4-.3-16.6,0-33.2,0-49.8,0-2.8,0-3.5,1.4-4.3,3.4-6.6,16.3-13.3,32.6-19.9,48.9-.5,1.2-.8,2.4-1.4,4,2.2,0,3.8,0,5.4,0,19,0,38,0,56.9,0,7.1,0,7.2,0,8.3-7,2.5-16.2,4.8-32.4,7.2-48.9ZM286.6,129.8h-59.7c-.9,18.7-1.8,37-2.8,55.5h65.2c-.9-18.7-1.8-36.9-2.7-55.5ZM462.5,185.7c-7.6-18.6-14.8-36.4-22.2-54.1-.5-1.1-2.7-2-4.1-2.1-12.4-.2-24.9,0-37.3,0-4.7,0-9.4,0-14.4,0,2.7,18.2,5.3,35.9,7.9,53.6.4,2.8,2.2,2.6,4.2,2.6,13.3,0,26.7,0,40,0,8.4,0,16.9,0,26,0ZM365.2,129.8h-59.6c.9,18.8,1.9,37.2,2.8,55.6h65.2c-2.8-18.7-5.5-37.1-8.3-55.6ZM205,185.5c1-18.8,1.9-37.2,2.9-55.7h-59.6c-2.7,18.7-5.4,37-8.2,55.7h64.9ZM309.1,205c.4,2.6,0,5.4,1.2,7,3.6,4.8,7.2,10,11.8,13.7,17.6,14,44.3,7.5,54.5-13,2.1-4.1-.2-7.8-4.8-7.8-19.4,0-38.8,0-58.2,0-1.3,0-2.6.1-4.5.2ZM223.5,205.1c-2.4,5.8,1.3,9.1,4,12.7,8.9,11.8,20.6,17,35.3,14.7,11-1.7,18.6-8.4,24.9-17.1,2.4-3.3,3.5-6.3,2.1-10.4h-66.3ZM203.7,205h-67c.2,2.9-.4,6.1.8,8.1,17.3,28.3,49.2,24.1,62.7,3.3,2.2-3.4,4.5-6.6,3.5-11.5ZM117.7,205H49c2.3,15.8,17.8,28.3,34.7,28.1,16.2-.2,32.3-13.4,33.9-28.1ZM395.8,204.9c1.1,14.6,18.8,28.8,34.7,28.2,17.2-.6,33.4-14.2,33.5-28.2h-68.3Z"/>
        <path d="M285,271.4v132.2H95.7v-132.2h189.3ZM266,384.5v-94.2H114.6v94.2h151.4Z"/>
        <path d="M180.9,363.9c.7-1.2,1.8-3.9,3.6-5.7,18.2-18.4,36.6-36.7,55-54.9,4.6-4.5,10.4-4.8,14.2-.9,4,3.9,3.8,9.6-.8,14.2-18.4,18.5-36.9,36.8-55.3,55.2-3.2,3.2-7.1,4.5-11.3,2.6-3.7-1.6-5.6-4.7-5.4-10.4Z"/>
        <path d="M227.2,375.9c-2.1-1.6-5.1-3.1-7-5.4-2.3-2.8-2.4-6.8.1-9.5,7.1-7.6,14.3-14.9,22-21.9,3.2-2.9,8.3-1.9,11.4,1.1,3.1,3.1,4.1,8.4,1.1,11.7-6.9,7.5-14.3,14.6-21.6,21.7-1.2,1.1-3.2,1.3-6,2.3Z"/>
      </g>
    </g>
  </g>
</svg>