<?xml version="1.0" encoding="utf-8"?>
<!-- Generator: Adobe Illustrator 25.0.1, SVG Export Plug-In . SVG Version: 6.00 Build 0)  -->
<svg fill="#fff" version="1.1" id="Capa_1" xmlns="http://www.w3.org/2000/svg" xmlns:xlink="http://www.w3.org/1999/xlink" x="0px" y="0px"
	 viewBox="0 0 351 328" style="enable-background:new 0 0 351 328;" xml:space="preserve">
<g>
	<path d="M288.5,189.3c0,1.6,0,2.7,0,3.9c0,26.9,0,53.8,0,80.7c0,19.4-13.2,32.5-32.5,32.6c-14.2,0-28.4,0-42.6,0
		c-6.9,0-10-3.2-10-10.2c0-21.4,0-42.8,0-64.2c0-10.1-5.7-15.7-15.8-15.8c-8,0-16.1,0-24.1,0c-9.4,0-15.2,5.8-15.2,15.2
		c0,21.5,0,43,0,64.4c0,7.3-3.1,10.4-10.3,10.5c-14.2,0-28.4,0-42.6,0c-19,0-32.2-13.3-32.2-32.3c0-27,0-54,0-81c0-1.1,0-2.2,0-3.8
		c-1.3,0-2.5,0-3.6,0c-11.5-0.1-21.1-6.1-25.1-16.4c-4.2-10.9-2.1-20.8,6.1-29.1c17.6-17.8,35.4-35.4,53.1-53.1
		c20.7-20.7,41.8-41.2,62.1-62.3c10.5-10.9,29.6-10.9,40.2-0.1c38,38.7,76.5,77,115.1,115.2c12,11.8,10.4,33.8-4.6,42.2
		c-4,2.2-8.2,3.6-12.8,3.6C291.9,189.4,290.3,189.3,288.5,189.3z M220.1,289.6c12.1,0,23.8,0,35.5,0c10.5,0,16-5.5,16-16.1
		c0-30.4,0-60.9,0-91.3c0-6.3,3.4-9.6,9.7-9.7c3.9,0,7.8,0.1,11.8,0c4.3-0.1,7.7-2.8,8.9-6.9c1.4-4.7-0.9-8-4-11.2
		C260,116.5,222,78.5,184,40.6c-5.8-5.8-10.7-5.8-16.6,0.1C133.6,74.5,99.8,108.3,66,142.1c-4.6,4.6-9.3,9.2-13.9,13.9
		c-3.1,3.1-4,6.8-2.2,10.8c1.7,3.9,4.9,5.8,9.1,5.8c3.2,0,6.4,0,9.5,0c8.5,0,11.3,2.8,11.3,11.2c0,30,0.2,60-0.1,89.9
		c-0.1,10.2,7.3,16.4,15.9,16.1c10.8-0.4,21.7-0.1,32.5-0.1c1,0,2,0,3.2,0c0-1.5,0-2.6,0-3.7c0-19-0.2-37.9,0.1-56.9
		c0.2-14.9,12.2-28,27.1-29c11.4-0.8,22.9-0.2,34.4-0.1c0.9,0,1.9,0.2,2.8,0.4c14.6,3.3,24.2,15.3,24.3,30.5c0.1,18.4,0,36.8,0,55.2
		C220.1,287.1,220.1,288.2,220.1,289.6z"/>
</g>
</svg>
