<?xml version="1.0" encoding="utf-8"?>
<!-- Generator: Adobe Illustrator 26.3.1, SVG Export Plug-In . SVG Version: 6.00 Build 0)  -->
<svg fill="#fff" version="1.1" id="Capa_1" xmlns="http://www.w3.org/2000/svg" xmlns:xlink="http://www.w3.org/1999/xlink" x="0px" y="0px"
	 viewBox="0 0 620.6 573.8" style="enable-background:new 0 0 620.6 573.8;" xml:space="preserve">
<g>
	<path d="M148.9,478.9c-10-3.4-13.6-10.5-13.6-21c0.2-91.9,0.1-183.7,0.1-275.6c0-9.1,4.2-15.5,11.9-17.8c0.9-0.3,1.9-0.6,2.9-0.6
		c11.5-0.1,23-0.3,34.5,0.1c1.8,0.1,4.4,2.2,5,4c0.5,1.6-0.7,4.3-2,5.8c-0.9,1-3.2,1.2-4.9,1.2c-9.4,0.1-18.7,0-28.1,0.1
		c-6.6,0-8.1,1.6-8.1,8.2c0,92.1,0,184.2,0,276.3c0,6.5,1.6,8.1,8.2,8.1c62,0,124,0,186,0c6.6,0,8.3-1.6,8.3-8.1
		c0-41.5,0-83,0-124.5c0-1.1,0-2.2,0-4c-1.6,0-3,0-4.4,0c-40.9,0-81.7,0-122.6,0c-12.6,0-19.2-6.6-19.2-19.2
		c0-65.4,0.1-130.7-0.1-196.1c0-10.5,3.6-17.6,13.6-21c58.5,0,117,0,175.5,0c10.1,3.4,13.9,10.5,13.6,21
		c-0.4,16.9-0.1,33.7-0.1,50.6c0,4.1-1.6,6.5-4.7,7c-3.7,0.7-6.5-2.1-6.5-6.7c0-17.4,0-34.7,0-52.1c0-1.1,0.1-2.3-0.1-3.4
		c-0.4-3-2.1-4.7-5.1-5.1c-1.1-0.2-2.2-0.1-3.4-0.1c-54.4,0-108.8,0-163.1,0c-6.8,0-8.4,1.5-8.4,8.3c0,65.7,0,131.5,0,197.2
		c0,6.6,1.6,8.2,8.2,8.2c54.5,0,109,0,163.5,0c6.8,0,8.3-1.6,8.3-8.4c0-39.5,0-79,0-118.5c0-6.5,1.6-8.1,8.2-8.1
		c9.9,0,19.8,0,29.6,0c4.4,0,7,2,7.1,5.4c0.1,3.6-2.6,5.8-7.1,5.8c-8.7,0-17.4,0-26.4,0c0,7.5,0,14.7,0,22.5c1.6,0,3.3,0,5,0
		c7.4,0,14.8,0,22.1,0c4,0,6.5,2.4,6.4,5.8c-0.1,3.2-2.5,5.4-6.4,5.4c-9,0.1-18,0-27.1,0c0,7.5,0,14.7,0,22.5c1.1,0,2.3,0,3.4,0
		c7.8,0,15.5,0,23.3,0c4.3,0,6.9,2.3,6.8,5.7c-0.1,3.3-2.6,5.5-6.7,5.5c-8.9,0-17.7,0-26.8,0c0,7.5,0,14.8,0,22.5
		c7.8,0,15.5,0,23.3,0c1.3,0,2.5,0,3.8,0c4,0.1,6.5,2.4,6.5,5.7c-0.1,3.3-2.6,5.5-6.7,5.5c-7.6,0-15.3,0-22.9,0c-1.2,0-2.5,0-4.3,0
		c0,7.5,0,14.8,0,22.5c8.1,0,16.7,0,25.3,0c1.2,0,2.5-0.1,3.7,0.1c2.9,0.6,4.7,2.4,4.7,5.4c0,3-1.7,4.9-4.6,5.6
		c-1.2,0.3-2.5,0.1-3.7,0.1c-23.2,0-46.5,0-70.1,0c0,7.4,0,14.7,0,22.5c1.2,0,2.5,0,3.8,0c22,0,44,0,66,0c1.1,0,2.3-0.1,3.4,0.1
		c3.1,0.4,5,2.3,5.2,5.4c0.2,3-2.1,5.4-5.3,5.7c-1.1,0.1-2.2,0-3.4,0c-21.9,0-43.8,0-65.6,0c-1.3,0-2.7,0-4.2,0
		c0,11.8,0,23.2,0,35.2c1.2,0,2.4,0,3.5,0c29.9,0,59.8,0,89.6,0c6.1,0,7.9-1.7,7.9-7.7c0-81.1,0-162.2,0-243.4
		c0-6.1-1.7-7.8-7.7-7.9c-9.8,0-19.5,0-29.3,0c-1.1,0-2.3,0.1-3.4-0.2c-3.1-0.7-4.8-2.7-4.6-5.9c0.2-2.9,2-5,5.1-5
		c12.2-0.1,24.5-0.3,36.7,0.2c7.6,0.3,13.8,7.6,14.3,15.5c0.1,1.2,0,2.5,0,3.7c0,80.7,0,161.5,0,242.2c0,13.3-6.5,19.7-19.8,19.7
		c-29.4,0-58.8,0-88.1,0c-1.4,0-2.7,0-4.3,0c0,11.3,0,22.3,0,33.8c1.7,0,3.3,0,4.9,0c18.3,0,36.5,0,54.8,0c5.8,0,7.6-1.8,7.6-7.6
		c0-3-0.1-6,0-9c0.1-3.5,2.4-5.9,5.5-5.9c3.1,0,5.6,2.3,5.7,5.7c0.1,4.1,0.2,8.3,0,12.4c-0.5,8.8-7.9,15.6-17.1,15.6
		c-19,0.1-38,0-57,0c-1.4,0-2.7,0-4.7,0c1.3,11-2.6,18.9-13.4,22.5C280.9,478.9,214.9,478.9,148.9,478.9z"/>
	<path d="M304.2,308.6c-23.1,0-46.2,0-69.4,0c-8.3,0-9.5-1.1-9.4-9.6c0.1-7.7-0.1-15.5,0.6-23.2c1.3-13,8.3-22.3,20.1-27.8
		c5.9-2.7,12.1-4.7,18.1-7.1c4.6-1.9,9.4-3.7,11.9-8.5c1.4-2.6,1.8-4.6-1.2-6.9c-10.2-8-16.7-18.5-17.3-31.5
		c-0.6-12.9-1.2-26.2,1-38.8c3.9-22.8,25.2-37.7,49.2-36.4c21.6,1.1,40.8,19.1,42.7,41.2c1,11.9,0.8,24-0.2,35.9
		c-1,12.3-7.6,22.3-17.4,29.9c-2.3,1.8-2.9,3.6-1.3,5.6c2.2,2.7,4.7,5.6,7.6,7.3c4.1,2.3,8.7,3.6,13.1,5.3c2.7,1,5.4,2,8,3.2
		c14.7,6.5,21.9,18,22.3,33.8c0.2,6.9,0.1,13.7,0.1,20.6c0,5-2,6.9-7.1,6.9C351.9,308.7,328,308.6,304.2,308.6z M371.6,297.3
		c0-5.5,0.1-10.6,0-15.7c-0.2-11.8-5.6-20.2-16.8-24.5c-5.1-2-10.3-3.8-15.4-5.8c-8.7-3.3-16-8.2-19.1-18c-10.8,3.6-21.4,3.5-32.2,0
		c-3.2,10.2-11,14.9-19.9,18.3c-5.8,2.3-11.7,4.3-17.4,6.8c-6,2.6-10.3,7-12.4,13.3c-2.7,8.4-1.5,17-1.7,25.6
		C281.9,297.3,326.6,297.3,371.6,297.3z M340.5,177.4c-0.1,0-0.3,0-0.4,0c0-4,0.1-8,0-12c-0.7-19.3-15.4-34.7-33.9-35.4
		c-19.8-0.7-35.7,12.7-37.5,32.6c-0.9,9.7-0.8,19.5,0,29.2c1.5,18,15.7,31.8,32.8,32.8c18,1.1,33.7-10.3,37.5-27.8
		C340.3,190.5,340,183.9,340.5,177.4z"/>
</g>
</svg>
