<?xml version="1.0" encoding="utf-8"?>
<!-- Generator: Adobe Illustrator 26.3.1, SVG Export Plug-In . SVG Version: 6.00 Build 0)  -->
<svg fill="#0065d7" version="1.1" id="Capa_1" xmlns="http://www.w3.org/2000/svg" xmlns:xlink="http://www.w3.org/1999/xlink" x="0px" y="0px"
	 viewBox="0 0 351 328" style="enable-background:new 0 0 351 328;" xml:space="preserve">
<g>
	<path d="M325.1,175.1c-2.4,5.2-6.5,6.8-12.1,6.5c-6.8-0.3-6.8-0.1-7.9,6.5c-3.5,21-6.9,41.9-10.5,62.8
		c-3.5,20.2-22.2,35.8-43.1,35.9c-34.9,0.1-69.9,0-104.8,0c-15.1,0-30.2,0-45.3,0c-24.4,0-41.9-15.2-45.6-39.4
		c-3.4-21.6-7.1-43.1-10.7-64.6c-0.1-0.4-0.2-0.7-0.5-1.4c-3,0-6.1,0-9.2,0c-5.8-0.1-9.4-3.7-9.4-9.5c0-11.2,0-22.4,0-33.7
		c0-5.9,3.6-9.5,9.5-9.5c20.6,0,41.3-0.1,61.9,0.1c2.4,0,3.6-0.8,4.8-2.8C118,99.6,133.9,73,149.8,46.4c2.1-3.5,4.8-5.6,9-5.3
		c6,0.5,9.6,6.8,7.1,12.3c-0.5,1.1-1.1,2.1-1.7,3.1c-13.8,23.1-27.6,46.1-41.4,69.2c-0.5,0.9-1,1.8-1.7,3c36.3,0,72.4,0,108.8,0
		c-0.6-1.1-1.2-2.1-1.7-3c-14.1-23.5-28.1-47-42.2-70.5c-3.5-5.9-1.1-12.4,5.1-13.9c3.9-0.9,7.5,0.8,10,4.9
		c7.3,12.1,14.5,24.2,21.8,36.3c8.8,14.7,17.6,29.4,26.4,44.1c1,1.6,2,2.2,3.9,2.2c20.1-0.1,40.1,0.1,60.2-0.1
		c5.4-0.1,9.4,1.4,11.8,6.5C325.1,148.6,325.1,161.8,325.1,175.1z M62.8,181.7c0,0.7,0,1.2,0.1,1.7c3.3,20.1,7.1,40.1,9.9,60.3
		c2.4,17,14.4,26.1,30.9,25.9c43.8-0.5,87.6-0.2,131.4-0.2c5.5,0,11.1,0.1,16.6,0c12.5-0.3,23.2-9,25.5-21.3c3-16,5.5-32.1,8.1-48.1
		c1-6,2-12.1,3-18.3C213.1,181.7,138.1,181.7,62.8,181.7z M307.4,146.6c-88.1,0-175.9,0-263.8,0c0,5.8,0,11.4,0,17.2
		c88,0,175.8,0,263.8,0C307.4,158.1,307.4,152.4,307.4,146.6z"/>
	<path d="M128.8,242.4c0.1,5-3.4,9-8.1,9.3c-4.7,0.3-8.9-3.2-9.3-8.1c-1-11.4-2-22.9-2.9-34.3c-0.5-7.2,5.5-12,11.8-9.6
		c3.2,1.2,5.2,3.6,5.5,6.9C126.8,218.6,127.8,230.5,128.8,242.4z"/>
	<path d="M242.7,208.5c-1,11.9-1.9,23.7-3,35.4c-0.4,4.9-4.8,8.3-9.5,7.9c-4.7-0.4-8.2-4.5-7.9-9.5c0.7-10.4,1.7-20.8,2.6-31.1
		c0.1-1.1,0.2-2.1,0.3-3.2c0.4-5.4,4.4-9.1,9.3-8.8C239.3,199.4,242.8,203.5,242.7,208.5z"/>
	<path d="M184.3,225.8c0,5.5,0,11.1,0,16.6c0,5.4-3.7,9.3-8.7,9.4c-5,0-8.8-3.9-8.8-9.3c0-11.4,0-22.8,0-34.2c0-5.4,3.8-9.3,8.8-9.2
		c4.9,0.1,8.6,3.9,8.7,9.1C184.3,214.1,184.3,219.9,184.3,225.8z"/>
</g>
</svg>
