<?xml version="1.0" encoding="utf-8"?>
<!-- Generator: Adobe Illustrator 26.3.1, SVG Export Plug-In . SVG Version: 6.00 Build 0)  -->
<svg fill="#0065d7" version="1.1" id="Capa_1" xmlns="http://www.w3.org/2000/svg" xmlns:xlink="http://www.w3.org/1999/xlink" x="0px" y="0px"
	 viewBox="0 0 620.6 573.8" style="enable-background:new 0 0 620.6 573.8;" xml:space="preserve">
<g>
	<path d="M36.9,428c1-4.6,1.8-9.2,2.9-13.8c15.1-63.1,82.4-97.8,142.5-73.1c3.9,1.6,5.8,1.3,8.7-2c60.8-70.7,169.6-70.4,230.4,0.5
		c2.3,2.7,4,3.2,7.4,1.8c63.4-26.3,133.5,12.5,144.8,80c0.9,5.2,1.2,10.4,1.3,15.7c0.1,7.5-4.8,12.8-11.6,12.8
		c-6.6,0-11.3-4.9-11.6-12.3c-0.9-25.4-10.5-46.7-30.3-62.7c-24.2-19.3-51.3-23.4-80.5-13.2c-0.8,0.3-1.5,0.7-1.5,0.7
		c4.8,13.2,10.3,25.9,13.8,39.1c2.9,11.1,3.7,22.7,4.8,34.2c0.8,8.4-4.2,14-11.2,14.2c-7,0.2-12-5-12.1-13.5
		c-0.4-22.2-6-42.8-17-62.1c-27-47.1-80.5-72.2-133.8-62.9c-53.5,9.4-95.8,52-104.6,105.6c-1.2,7.6-1.2,15.3-2.1,23
		c-0.7,5.8-5.6,9.8-11.2,9.8c-5.5,0.1-10.4-3.9-11.5-9.6c-0.3-1.7-0.3-3.5-0.3-5.2c0.7-23.6,6.2-46,17.2-67c0.8-1.5,1.6-3.1,2.6-5.1
		c-8.7-4.2-17.8-6.1-27.2-6.4c-47.2-1.7-84.2,32.7-86.2,80c-0.2,5.5-1.8,10-7.1,12.3c-4.5,2-8.6,1.2-12.2-2
		c-1.6-1.5-2.7-3.5-4.1-5.3C36.9,437.1,36.9,432.6,36.9,428z"/>
	<path d="M306,99.2c45.1,0,81.9,36.8,81.8,81.9c0,45-36.9,81.9-81.9,81.9c-45,0-81.9-36.9-81.8-82C224,136,260.9,99.2,306,99.2z
		 M304.8,239.5c31.4,1.3,58.3-24.6,59.6-57.3c1.2-31.3-24.3-58.1-56.8-59.6c-31.7-1.5-58.9,24.4-60.1,57.3
		C246.2,211.4,272,238.2,304.8,239.5z"/>
	<path d="M528,251.3c0,32.3-26.1,58.4-58.4,58.3c-32.2,0-58.5-26.3-58.5-58.4c0-32.1,26.5-58.5,58.5-58.5
		C501.8,192.8,528,219.1,528,251.3z M504.6,251.3c0-19.4-15.6-35.1-34.9-35.2c-19.2-0.1-35.1,15.8-35.1,35.1c0,19.3,15.7,35,35,35.1
		C489,286.3,504.6,270.7,504.6,251.3z"/>
	<path d="M202.2,251c0.2,32.3-25.7,58.4-58.1,58.6c-32.2,0.2-58.6-26-58.7-58.1c-0.1-32.1,26.2-58.6,58.2-58.7
		C175.8,192.6,202,218.7,202.2,251z M178.8,251.3c0-19.4-15.5-35.1-34.9-35.2c-19.1-0.1-35.1,15.8-35.2,35
		c-0.1,19.2,15.7,35.1,35,35.1C163.1,286.3,178.8,270.7,178.8,251.3z"/>
</g>
</svg>
