<?xml version="1.0" encoding="UTF-8"?>
<svg fill="#fff" xmlns="http://www.w3.org/2000/svg" version="1.1" viewBox="0 0 512 512">
  <!-- Generator: Adobe Illustrator 28.7.4, SVG Export Plug-In . SVG Version: 1.2.0 Build 166)  -->
  <g>
    <g id="Capa_1">
      <g>
        <path d="M17.3,270.8c2-4.2,5.5-6.3,9.8-7.8,37.2-12.6,75.3-19.7,114.7-19.2,27.2.4,53.7,5.6,79.8,12.5,7.5,2,15.1,3.7,22.5,5.7,12.3,3.3,24,.1,35.7-3,21.8-5.8,43.6-11.1,66-13.7,28.2-3.2,56.2-2,83.9,3.6,18.5,3.7,36.6,9.3,54.9,14.1,4.4,1.1,7.9,3.5,9.9,7.7v5.6c-2,3.4-4.3,6.2-8.6,7.1-8.9,1.8-11.4,4.1-11.9,13.2-.5,10-.3,20.1.4,30.2,1.1,16.4-3.3,31-13.5,43.8-13,16.3-30.8,24.6-50.7,28.8-9.1,1.9-18.4,2.6-27.5,3.9h-14c-5.1-.6-10.2-1.1-15.2-1.9-24.5-3.6-45.7-13.4-61.1-33.7-9.2-12.1-13.3-26-16.1-40.7-1.8-9.7-5.4-12.5-15.3-13.3-2.3-.2-4.7-.2-7-.1-13.5.4-17.3,3.5-19.5,16.6-6.2,36.8-28.1,59.1-63.6,68.5-9.1,2.4-18.6,3.1-27.9,4.6h-14c-2.4-.3-4.9-.7-7.3-.9-16.2-1.3-31.9-4.5-46.5-12.1-19.1-10-33-24.6-36.8-46.3-1.7-9.7-.2-20-.4-30.1-.2-7.2-.5-14.5-1.4-21.7-.6-4.6-3.5-8-8.6-8.3-5.2-.3-8.7-2.9-10.9-7.4v-5.6ZM52.2,275c2.1,7.1,4.5,12.7,5.1,18.4.9,8.8.4,17.6.5,26.5,0,6.7-1,13.5.2,19.9,3,16,13.2,27,27.7,33.4,26.5,11.9,54.3,12.9,82.1,5.7,53.8-13.9,57.1-71.6,36.3-102.3-1.9-2.8-3.9-5.2-7.7-6-29.5-6.6-59.3-9-89.3-5.1-18.4,2.4-36.6,6.3-54.8,9.5ZM460.2,276.7c-.8-.4-1.1-.8-1.6-.9-47-12.9-94.4-16.7-142.2-5.1-2.8.7-5.9,2.8-7.7,5.1-7.7,10.2-10.9,22.1-12.3,34.7-3.1,28.4,11.9,55.3,37.9,65.2,30,11.4,60.3,10.2,90.1-1.5,12.7-5,22.2-14,27.6-27,3.7-9,2.7-18.3,2.2-27.6-.9-14.6-1.8-29.3,6-42.9ZM228.5,278.6c2.1,7,3.9,12.8,5.8,18.8,14.6-5.2,29.1-5.2,43.5,0,1.9-6.1,3.7-11.9,5.8-18.8-18.4,5.7-36.4,5.6-55.1,0Z"/>
        <path d="M159,84.3c2.5.6,5.1,1.1,7.6,1.8,12.4,3.3,21.7,10.7,27.6,22,7,13.5,13.7,27.1,20.5,40.7,2.9,6,1.1,11.8-4.2,14.3-5.1,2.4-10.6.4-13.5-5.4-6.4-12.6-12.8-25.2-19-37.9-4.4-8.9-10.9-14.6-21.1-15.2-10.4-.6-17.7,4.2-23.1,12.8-25.4,39.6-50.8,79.1-76.3,118.7-.8,1.3-1.6,2.7-2.6,3.9-3.3,4-8.7,4.9-13,2.1-4.3-2.7-5.8-7.9-3.6-12.7.7-1.5,1.7-2.9,2.6-4.4,25.1-39,50.3-78,75.2-117.2,8.2-12.8,18.9-21.1,34.2-23,.4,0,.8-.4,1.2-.6,2.5,0,5,0,7.5,0Z"/>
        <path d="M360.4,84.3c1.9.4,3.9.9,5.8,1.3,11.4,2.7,20.6,8.6,27,18.5,26.5,41.1,53,82.2,79.4,123.4,3.6,5.6,2.5,11.6-2.5,14.7-5.1,3.2-10.7,1.6-14.6-4.4-25.8-40.1-51.5-80.2-77.3-120.2-7.2-11.2-17.8-15.4-29.1-11.7-6.9,2.2-11.6,6.9-14.8,13.4-5.9,12-11.9,23.9-17.9,35.8-.8,1.5-1.5,3.1-2.4,4.5-2.9,4.4-8,5.9-12.6,3.7-4.6-2.2-7.2-7.8-4.8-12.6,7.6-15.6,15.1-31.3,23.7-46.4,6.3-11.1,17-16.9,29.6-19,1-.2,2-.6,3.1-.9,2.5,0,5,0,7.5,0Z"/>
      </g>
    </g>
  </g>
</svg>