<?xml version="1.0" encoding="utf-8"?>
<!-- Generator: Adobe Illustrator 26.3.1, SVG Export Plug-In . SVG Version: 6.00 Build 0)  -->
<svg fill="#fecd71" version="1.1" id="Capa_1" xmlns="http://www.w3.org/2000/svg" xmlns:xlink="http://www.w3.org/1999/xlink" x="0px" y="0px"
	 viewBox="0 0 620.6 573.8" style="enable-background:new 0 0 620.6 573.8;" xml:space="preserve">
<g>
	<path d="M169.8,520.4c-9.5-2-18.2-5.6-24.8-13.2c-7.2-8.2-9.9-17.9-9.9-28.6c0-100.2,0-200.3,0-300.5c0-28-0.1-55.9,0-83.9
		c0-16.6,7-29.6,22.2-36.7c5.6-2.6,12.3-3.9,18.5-4c66.7-0.3,133.4-0.2,200.2-0.2c4.4,0,7.9,1.5,11,4.5
		c31.2,31.3,62.5,62.6,93.8,93.8c3.2,3.2,4.6,6.8,4.6,11.4c-0.1,105.5-0.1,211,0,316.4c0,21.4-14.5,37.7-33.5,40.3
		c-0.4,0.1-0.8,0.4-1.2,0.6C357.1,520.4,263.5,520.4,169.8,520.4z M368.7,72.8c-2.3,0-4,0-5.6,0c-61.7,0-123.4,0-185.1,0
		c-16,0-23.4,7.4-23.4,23.5c0,127.1,0,254.1,0,381.2c0,16.1,7.4,23.5,23.3,23.5c88.3,0,176.6,0,264.9,0c15.7,0,23.2-7.5,23.2-23.2
		c0-100.8,0-201.5,0-302.3c0-1.6,0-3.3,0-5.3c-2.2,0-3.8,0-5.4,0c-17.2,0-34.4,0.1-51.5,0c-16.5-0.1-29.2-7.1-36.3-22.2
		c-2.7-5.7-3.8-12.5-4-18.9C368.3,110.5,368.7,92,368.7,72.8z M388.1,88.2c0,0.7,0,1.7,0,2.7c0,12.8-0.1,25.5,0,38.3
		c0.1,13.6,8,21.4,21.6,21.5c12.6,0.1,25.2,0,37.8,0c1.1,0,2.3-0.2,2.8-0.2C429.7,129.9,408.9,109.1,388.1,88.2z"/>
	<path d="M330,244.8c-0.1,12.2-4.3,23.3-7.5,34.7c-1.4,4.8-2.8,9.6-4.5,14.3c-0.9,2.6-0.6,4.4,1.3,6.5
		c11.6,13.4,24.1,25.7,38.1,36.5c1.6,1.2,4.1,1.7,6.1,1.6c11.6-0.7,23.2-1.9,34.9-2.3c4.1-0.2,8.5,0.9,12.5,2
		c10.6,2.9,16.1,10,16.1,20.4c0.1,12-5.8,20.3-16,23.8c-12.4,4.2-22.9,0.1-33-6.5c-7-4.6-13.7-9.6-20.7-14.1c-1.5-1-3.7-1.7-5.3-1.3
		c-19.8,5.1-39.5,10.5-59.3,15.7c-3.4,0.9-5.4,2.8-6.9,5.8c-9.7,18.9-21.6,36.3-38.4,49.7c-10.9,8.7-22.7,14-37,8.6
		c-18.8-7.1-22.7-26.5-7.4-39.5c7-5.9,15.1-10.8,23.2-15c14.5-7.6,29.5-14.3,44.2-21.6c1.8-0.9,3.8-2.7,4.5-4.6
		c6.7-18.5,13.2-37.2,19.5-55.8c0.5-1.5-0.5-3.7-1.3-5.3c-5.8-10.3-12.5-20.1-17.5-30.8c-5.9-12.6-5.1-26.2-1.1-39.2
		c4.7-15.1,17.5-21.8,33.8-18.9c11.2,2,17.2,8.9,19.6,19.5C328.8,234.3,329.2,239.6,330,244.8z M302.6,278
		c2.1-7.1,4.6-13.5,5.7-20.2c1.1-7.1,1.4-14.4,1.1-21.6c-0.2-6.2-2.7-7.9-8.9-7.7c-4.7,0.1-7.1,2.3-8.4,7.9
		C288.3,251.9,293.7,265,302.6,278z M309.7,319.5c-3.8,11.3-7.4,22.3-11.2,33.7c12.5-3.3,24.1-6.4,34.2-9
		C325.4,336.4,317.7,328.1,309.7,319.5z M256.2,393.5c-0.3-0.5-0.6-0.9-0.9-1.4c-12.6,7.1-25.2,14.2-37.7,21.4
		c-0.8,0.4-1.4,1.2-2,1.8c-3.4,3.8-3,5.2,1.9,6.9c4.2,1.4,8.1,0.8,11.8-1.5C240.5,413.8,248.7,404,256.2,393.5z M384,354.8
		c-0.1,0.5-0.3,1-0.4,1.5c2.9,1.8,5.7,4.1,8.8,5.4c3.2,1.4,6.8,2.2,10.3,2.6c2.7,0.3,5.1-1.3,4.6-4.2c-0.3-1.5-2.5-3.6-4-3.8
		C396.9,355.5,390.4,355.3,384,354.8z"/>
</g>
</svg>
