<?xml version="1.0" encoding="utf-8"?>
<!-- Generator: Adobe Illustrator 26.3.1, SVG Export Plug-In . SVG Version: 6.00 Build 0)  -->
<svg version="1.1" id="Capa_1" xmlns="http://www.w3.org/2000/svg" xmlns:xlink="http://www.w3.org/1999/xlink" x="0px" y="0px"
	 viewBox="0 0 620.6 573.8" style="enable-background:new 0 0 620.6 573.8;" xml:space="preserve">
<g>
	<path d="M366.2,87.8c4.1,2,5.5,5.2,5.4,9.7c-0.2,8.1-0.1,16.2-0.1,24.7c4.8,0,9.3,0,13.7,0c7.4,0,9.8,2.4,9.8,9.9
		c0,28.3,0,56.6,0,85c0,1.6,0,3.2,0,5.4c1.6,0,2.9,0,4.2,0c14.1,0,28.3,0,42.4,0c7.3,0,9.8,2.5,9.8,10c0,72.7,0,145.5,0,218.2
		c0,1.6,0,3.2,0,5.4c2.4,0,4.6-0.1,6.8,0c4.5,0.2,7.7,3.4,7.6,7.6c-0.1,4-3.2,7.1-7.5,7.3c-1.1,0.1-2.3,0-3.4,0
		c-101.8,0-203.6,0-305.3,0c-1,0-2,0-3,0c-4.5-0.2-7.8-3.3-7.8-7.5c0-4.1,3.2-7.4,7.7-7.5c5.7-0.1,11.5,0,17.3,0
		c0.7,0,1.5-0.1,2.6-0.2c0-1.6,0-3,0-4.5c0-55.8,0-111.5,0-167.3c0-8.2,2.2-10.4,10.5-10.4c11.3,0,22.5,0,33.8,0c1.3,0,2.7,0,4.5,0
		c0-1.9,0-3.4,0-4.8c0-45.4,0-90.8,0-136.3c0-8.3,2.1-10.4,10.4-10.4c4.2,0,8.4,0,13,0c0-8.3,0.2-16.3-0.1-24.2
		c-0.2-4.6,1.3-8,5.3-10.2C284.6,87.8,325.4,87.8,366.2,87.8z M379.7,456c0-106.3,0-212.4,0-318.5c-50,0-99.7,0-149.3,0
		c0,106.3,0,212.3,0,318.4c12.4,0,24.6,0,37.1,0c0-1.7,0-3.2,0-4.7c0-14.2,0-28.4,0-42.7c0-6.7,2.7-9.3,9.4-9.3
		c18.8,0,37.5,0,56.3,0c6.9,0,9.6,2.6,9.6,9.5c0,14.3,0,28.7,0,43c0,1.3,0,2.7,0,4.2C355.2,456,367.3,456,379.7,456z M395.4,237.7
		c0,72.9,0,145.6,0,218.3c13.8,0,27.2,0,40.9,0c0-72.8,0-145.5,0-218.3C422.6,237.7,409.1,237.7,395.4,237.7z M214.9,456
		c0-55.9,0-111.4,0-167.1c-11.2,0-22.2,0-33.1,0c0,55.8,0,111.4,0,167.1C192.9,456,203.8,456,214.9,456z M253.8,122
		c34.4,0,68.4,0,102.5,0c0-6.4,0-12.6,0-19c-34.2,0-68.3,0-102.5,0C253.8,109.4,253.8,115.5,253.8,122z M327.5,414.4
		c-15,0-29.8,0-44.8,0c0,13.9,0,27.7,0,41.5c15.1,0,29.9,0,44.8,0C327.5,442,327.5,428.3,327.5,414.4z"/>
	<path d="M295.8,339.8c0,5.4,0,10.7,0,16.1c-0.1,5.8-2.7,8.6-8.4,8.7c-10.9,0.1-21.7,0.1-32.6,0c-5.6-0.1-8.5-3-8.5-8.7
		c-0.1-10.7-0.1-21.5,0-32.2c0-5.7,2.8-8.6,8.5-8.7c10.9-0.1,21.7-0.1,32.6,0c5.8,0.1,8.4,2.9,8.4,8.7
		C295.8,329.1,295.8,334.4,295.8,339.8z M261.4,330.2c0,6.7,0,12.8,0,19.1c6.5,0,12.8,0,19,0c0-6.5,0-12.8,0-19.1
		C274,330.2,267.8,330.2,261.4,330.2z"/>
	<path d="M314.4,339.8c0-5.5,0-11,0-16.5c0.1-5.3,2.7-8.2,8-8.3c11.1-0.2,22.2-0.2,33.4,0c5.5,0.1,8.1,3,8.1,8.6
		c0,10.7,0,21.5,0,32.2c0,5.9-2.8,8.7-8.8,8.7c-10.6,0.1-21.2,0.1-31.9,0c-6.2,0-8.8-2.8-8.9-9C314.3,350.3,314.4,345.1,314.4,339.8
		z M329.6,330.2c0,6.5,0,12.8,0,19.1c6.5,0,12.8,0,19.2,0c0-6.5,0-12.7,0-19.1C342.3,330.2,336,330.2,329.6,330.2z"/>
	<path d="M314.4,187.4c0-5.2,0-10.5,0-15.7c0-5.7,2.8-8.7,8.4-8.7c10.9-0.1,21.7-0.1,32.6,0c5.7,0,8.5,3,8.5,8.6
		c0,10.7,0,21.5,0,32.2c0,5.8-2.7,8.6-8.4,8.7c-10.9,0.1-21.7,0.1-32.6,0c-5.8,0-8.4-2.8-8.5-8.6
		C314.3,198.3,314.4,192.8,314.4,187.4z M348.7,178.1c-6.4,0-12.7,0-19.1,0c0,6.5,0,12.8,0,19.2c6.4,0,12.6,0,19.1,0
		C348.7,190.8,348.7,184.6,348.7,178.1z"/>
	<path d="M295.8,264.1c0,5.4,0.1,10.7,0,16.1c-0.1,5.5-2.9,8.2-8.4,8.3c-10.9,0.1-21.8,0.1-32.6,0c-5.4,0-8.4-2.9-8.5-8.3
		c-0.1-11-0.1-22,0-32.9c0-5.4,3-8.2,8.5-8.2c10.9-0.1,21.8-0.1,32.6,0c5.6,0,8.3,2.7,8.4,8.3C295.8,252.9,295.8,258.5,295.8,264.1z
		 M280.5,273.4c0-6.7,0-13,0-19.2c-6.5,0-12.7,0-19,0c0,6.5,0,12.8,0,19.2C267.9,273.4,274.1,273.4,280.5,273.4z"/>
	<path d="M314.4,263.7c0-5.5,0-11,0-16.5c0.1-5.3,2.9-8.2,8.1-8.2c11.1-0.1,22.3-0.1,33.4,0c5.2,0,8,3,8.1,8.2c0.1,11,0.1,22,0,32.9
		c0,5.4-3,8.2-8.5,8.3c-10.9,0.1-21.8,0.1-32.6,0c-5.6,0-8.4-2.9-8.4-8.7C314.3,274.5,314.4,269.1,314.4,263.7z M348.7,273.4
		c0-6.6,0-12.8,0-19.2c-6.5,0-12.8,0-19.1,0c0,6.5,0,12.8,0,19.2C336.1,273.4,342.3,273.4,348.7,273.4z"/>
	<path d="M295.8,188.1c0,5.4,0.1,10.7,0,16.1c-0.1,5.3-2.7,8.1-8.1,8.1c-11,0.1-22,0.1-33,0c-5.5-0.1-8.4-2.9-8.4-8.3
		c-0.1-11-0.1-22,0-32.9c0-5.2,3-8.2,8.2-8.2c11.1-0.1,22.2-0.1,33.4,0c5.1,0.1,7.8,3,7.9,8C295.8,176.7,295.8,182.4,295.8,188.1z
		 M280.5,197.2c0-6.5,0-12.7,0-19c-6.5,0-12.8,0-19.1,0c0,6.5,0,12.6,0,19C267.8,197.2,273.9,197.2,280.5,197.2z"/>
</g>
</svg>
